# xmcd CD database file
#
# Track frame offsets:
#	150
#	25552
#	53461
#	70320
#	83150
#	95471
#	124563
#	142937
#	159786
#	182176
#	205282
#	219794
#
# Disc length: 3285 seconds
#
# Revision: 9
# Processed by: cddbd v1.5.2PL0 Copyright (c) Steve Scherf et al.
# Submitted via: CDex 2.21
#
DISCID=900cd30c
DTITLE=Morrison, Van - Magic time
DYEAR=2005
DGENRE=Rock
TTITLE0=Stranded
TTITLE1=Celtic new year
TTITLE2=Keep mediocrity at bay
TTITLE3=Evening train
TTITLE4=This love of mine
TTITLE5=Just like Greta
TTITLE6=Gipsy in my soul
TTITLE7=Lonely and blue
TTITLE8=The lion this time
TTITLE9=Magic time
TTITLE10=They sold me out
TTITLE11=Carry on regardless
EXTD=YEAR: 2005
EXTT0=
EXTT1=
EXTT2=
EXTT3=
EXTT4=
EXTT5=
EXTT6=
EXTT7=
EXTT8=
EXTT9=
EXTT10=
EXTT11=
PLAYORDER=
